# Blender 4.0.2
# www.blender.org
mtllib bomb.mtl
o Cube
v -0.359117 0.145707 0.145707
v -0.145707 0.145707 0.359117
v -0.145707 0.359117 0.145707
v -0.145707 0.145707 -0.359117
v -0.359117 0.145707 -0.145707
v -0.145707 0.359117 -0.145707
v 0.145707 0.359117 0.145707
v 0.145707 0.145707 0.359117
v 0.359117 0.145707 0.145707
v 0.145707 0.359117 -0.145707
v 0.359117 0.145707 -0.145707
v 0.145707 0.145707 -0.359117
v -0.359117 -0.145707 0.145707
v -0.145707 -0.359117 0.145707
v -0.145707 -0.145707 0.359117
v -0.145707 -0.359117 -0.145707
v -0.359117 -0.145707 -0.145707
v -0.145707 -0.145707 -0.359117
v 0.145707 -0.359117 0.145707
v 0.359117 -0.145707 0.145707
v 0.145707 -0.145707 0.359117
v 0.145707 -0.145707 -0.359117
v 0.359117 -0.145707 -0.145707
v 0.145707 -0.359117 -0.145707
v 0.145707 0.145707 0.486745
v 0.145707 -0.145707 0.486745
v -0.145707 0.145707 0.486745
v -0.145707 -0.145707 0.486745
v 0.145707 0.145707 0.486745
v 0.145707 -0.145707 0.486745
v -0.145707 0.145707 0.486745
v -0.145707 -0.145707 0.486745
v 0.043281 0.043281 0.464403
v 0.043281 -0.043281 0.464403
v -0.043281 0.043281 0.464403
v -0.043281 -0.043281 0.464403
v 0.036727 -0.087277 0.722067
v 0.039140 -0.143796 0.681169
v -0.033035 -0.089543 0.721082
v -0.030621 -0.146061 0.680184
v 0.055361 -0.378247 0.781805
v 0.056067 -0.401818 0.744597
v 0.011410 -0.381071 0.782759
v 0.012117 -0.404642 0.745552
vn -0.0000 -0.0000 -1.0000
vn -0.0000 -1.0000 -0.0000
vn 1.0000 -0.0000 -0.0000
vn -1.0000 -0.0000 -0.0000
vn -0.0000 1.0000 -0.0000
vn -0.5774 0.5774 0.5774
vn -0.5774 0.5774 -0.5774
vn 0.5774 0.5774 0.5774
vn 0.5774 0.5774 -0.5774
vn -0.5774 -0.5774 0.5774
vn -0.5774 -0.5774 -0.5774
vn 0.5774 -0.5774 0.5774
vn 0.5774 -0.5774 -0.5774
vn -0.0000 -0.7071 -0.7071
vn -0.7071 -0.0000 -0.7071
vn -0.7071 0.7071 -0.0000
vn 0.7071 -0.7071 -0.0000
vn 0.7071 0.7071 -0.0000
vn -0.7071 -0.7071 -0.0000
vn 0.7071 -0.0000 0.7071
vn -0.0000 0.7071 0.7071
vn 0.7071 -0.0000 -0.7071
vn -0.0000 -0.7071 0.7071
vn -0.7071 -0.0000 0.7071
vn -0.0000 0.7071 -0.7071
vn -0.0000 -0.0000 1.0000
vn 0.0216 -0.2417 -0.9701
vn -0.0353 0.8918 0.4510
vn -0.0000 -0.9028 -0.4300
vn 0.9993 0.0216 0.0291
vn -0.9992 -0.0000 0.0399
vn 0.0657 -0.8424 0.5349
vn 0.9980 0.0607 -0.0195
vn -0.9853 -0.1257 0.1156
vn 0.0083 0.2016 0.9794
vn -0.0057 -0.2391 -0.9710
vn -0.0000 0.8881 0.4596
vn 0.0354 -0.9069 -0.4199
vn 0.9997 -0.0000 0.0254
vn -0.9976 -0.0632 0.0284
vn 0.9980 0.0592 -0.0229
vn -0.9868 -0.1447 0.0729
vn -0.0204 0.2040 0.9788
vt 0.300717 0.574283
vt 0.199283 0.675717
vt 0.199283 0.574283
vt 0.550717 0.074283
vt 0.449283 0.175717
vt 0.449283 0.074283
vt 0.550717 0.824283
vt 0.449283 0.925717
vt 0.449283 0.824283
vt 0.625000 0.324283
vt 0.625000 0.425717
vt 0.550717 0.574283
vt 0.449283 0.675717
vt 0.449283 0.574283
vt 0.550717 0.425717
vt 0.550717 0.500000
vt 0.300717 0.500000
vt 0.375000 0.574283
vt 0.550717 0.750000
vt 0.625000 0.824283
vt 0.375000 0.675717
vt 0.300717 0.750000
vt 0.300717 0.675717
vt 0.550717 0.250000
vt 0.550717 0.175717
vt 0.625000 0.175717
vt 0.125000 0.574283
vt 0.199283 0.500000
vt 0.550717 0.000000
vt 0.625000 0.074283
vt 0.199283 0.750000
vt 0.125000 0.675717
vt 0.449283 0.000000
vt 0.550717 0.675717
vt 0.449283 0.324283
vt 0.550717 0.324283
vt 0.625000 0.925717
vt 0.699283 0.675717
vt 0.699283 0.574283
vt 0.449283 0.425717
vt 0.800717 0.574283
vt 0.800717 0.675717
vt 0.550717 0.925717
s 0
usemtl Material
f 4/1/1 22/2/1 18/3/1
f 19/4/2 16/5/2 24/6/2
f 9/7/3 23/8/3 11/9/3
f 15/10/4 27/11/4 2/11/4
f 3/12/5 10/13/5 6/14/5
f 1/15/6 2/11/6 3/16/6
f 4/1/7 5/17/7 6/18/7
f 7/19/8 8/20/8 9/7/8
f 10/21/9 11/22/9 12/23/9
f 13/24/10 14/25/10 15/26/10
f 16/27/11 17/28/11 18/3/11
f 19/4/12 20/29/12 21/30/12
f 22/2/13 23/31/13 24/32/13
f 22/2/14 16/27/14 18/3/14
f 18/3/15 5/17/15 4/1/15
f 6/14/16 1/15/16 3/12/16
f 20/29/17 24/6/17 23/33/17
f 11/9/18 7/34/18 9/7/18
f 17/35/19 14/25/19 13/36/19
f 21/37/20 9/7/20 8/20/20
f 8/38/21 3/12/21 2/39/21
f 12/23/22 23/31/22 22/2/22
f 15/26/23 19/4/23 21/30/23
f 2/11/24 13/36/24 15/10/24
f 4/1/25 10/13/25 12/23/25
f 13/36/4 5/40/4 17/35/4
f 28/26/26 30/30/26 32/26/26
f 21/30/2 28/26/2 15/26/2
f 2/39/5 25/38/5 8/38/5
f 8/20/3 26/37/3 21/37/3
f 32/41/26 29/38/26 31/39/26
f 26/37/26 29/20/26 30/37/26
f 27/11/26 32/10/26 31/11/26
f 25/38/26 31/39/26 29/38/26
f 33/38/1 36/41/1 35/39/1
f 38/42/27 44/41/27 40/41/27
f 33/38/28 39/39/28 37/38/28
f 34/42/29 40/41/29 36/41/29
f 34/42/30 37/38/30 38/42/30
f 36/41/31 39/39/31 35/39/31
f 44/41/32 41/38/32 43/39/32
f 38/42/33 41/38/33 42/42/33
f 40/41/34 43/39/34 39/39/34
f 37/38/35 43/39/35 41/38/35
f 4/1/1 12/23/1 22/2/1
f 19/4/2 14/25/2 16/5/2
f 9/7/3 20/43/3 23/8/3
f 15/10/4 28/10/4 27/11/4
f 3/12/5 7/34/5 10/13/5
f 22/2/14 24/32/14 16/27/14
f 18/3/15 17/28/15 5/17/15
f 6/14/16 5/40/16 1/15/16
f 20/29/17 19/4/17 24/6/17
f 11/9/18 10/13/18 7/34/18
f 17/35/19 16/5/19 14/25/19
f 21/37/20 20/43/20 9/7/20
f 8/38/21 7/34/21 3/12/21
f 12/23/22 11/22/22 23/31/22
f 15/26/23 14/25/23 19/4/23
f 2/11/24 1/15/24 13/36/24
f 4/1/25 6/14/25 10/13/25
f 13/36/4 1/15/4 5/40/4
f 28/26/26 26/30/26 30/30/26
f 21/30/2 26/30/2 28/26/2
f 2/39/5 27/39/5 25/38/5
f 8/20/3 25/20/3 26/37/3
f 32/41/26 30/42/26 29/38/26
f 26/37/26 25/20/26 29/20/26
f 27/11/26 28/10/26 32/10/26
f 25/38/26 27/39/26 31/39/26
f 33/38/1 34/42/1 36/41/1
f 38/42/36 42/42/36 44/41/36
f 33/38/37 35/39/37 39/39/37
f 34/42/38 38/42/38 40/41/38
f 34/42/39 33/38/39 37/38/39
f 36/41/40 40/41/40 39/39/40
f 44/41/32 42/42/32 41/38/32
f 38/42/41 37/38/41 41/38/41
f 40/41/42 44/41/42 43/39/42
f 37/38/43 39/39/43 43/39/43
