# Blender 4.0.2
# www.blender.org
o Cube
v 1.000000 -1.000000 1.000000
v 1.000000 -1.000000 -1.000000
v -1.000000 -1.000000 1.000000
v -1.000000 -1.000000 -1.000000
v 1.000000 1.000000 1.000000
v 1.000000 1.000000 -1.000000
v -1.000000 1.000000 1.000000
v -1.000000 1.000000 -1.000000
vn -0.0000 -0.0000 1.0000
vn -1.0000 -0.0000 -0.0000
vn -0.0000 1.0000 -0.0000
vn -0.0000 -0.0000 -1.0000
vn -0.0000 -1.0000 -0.0000
vn 1.0000 -0.0000 -0.0000
vt 0.552816 0.987914
vt 0.517496 0.958042
vt 0.517496 0.987914
vt 1.000000 1.000000
vt 0.000000 0.000000
vt 1.000000 0.000000
vt 0.000000 1.000000
vt 0.691379 0.016131
vt 0.726590 0.046369
vt 0.726590 0.016131
vt 0.552816 0.958042
vt 0.691379 0.046369
s 0
f 5/1/1 3/2/1 1/3/1
f 3/4/2 8/5/2 4/6/2
f 7/7/3 6/6/3 8/5/3
f 2/8/4 8/9/4 6/10/4
f 1/4/5 4/5/5 2/6/5
f 5/7/6 2/6/6 6/5/6
f 5/1/1 7/11/1 3/2/1
f 3/4/2 7/7/2 8/5/2
f 7/7/3 5/4/3 6/6/3
f 2/8/4 4/12/4 8/9/4
f 1/4/5 3/7/5 4/5/5
f 5/7/6 1/4/6 2/6/6
